:SAMPLES-PER-SECOND 30
:FULLY-SPECIFIED
:DEGREES
61
root  48.9055 37.6187 9.27387 20.3736 -82.393 -24.5297
RightUpLeg  -16.5468 -5.34782 7.68578
RightLeg  27.1055 -3.21715 -1.96631
RightFoot  -7.6591 0.130661 -5.67108
RightToes  -1.74624e-010 0 -3.6325e-017
Spine  6.17382 -1.4979 11.6992
Spine1  5.78594 0.140197 -0.091686
HEad  -5.8679 -14.096 0.260927
LeftShoulder1  -0.56797 4.90091 -34.4781
LeftArm  4.34637 5.49328 -42.5108
LeftForeArm  33.2617 -11.8253 -9.16726
LeftHand  -0.0419119 6.54841 -0.553898
RightShoulder  -1.13092 -6.47565 31.5104
RightArm  13.2324 -2.12081 43.049
RightForeArm  19.2564 8.51383 6.62788
RightHand  -0.00130152 3.55532 -0.266644
LeftUpLeg  -5.11663 3.91441 4.3933
LeftLeg  61.5566 -1.54215 -2.52024
LeftFoot  7.6427 1.29875 -8.03401
LeftToes  -3.96543e-010 8.93632e-011 -2.58531e-011
62
root  47.6259 37.8872 9.37609 17.4023 -83.2227 -21.7929
RightUpLeg  -13.4547 -5.07464 6.86617
RightLeg  26.1104 -2.97321 -1.67733
RightFoot  -9.2307 0.0386651 -5.45193
RightToes  -1.74624e-010 0 -3.6325e-017
Spine  5.93451 -0.857315 12.1149
Spine1  6.10339 1.14112 -1.44324
HEad  -5.70961 -15.7026 0.79596
LeftShoulder1  -0.517633 4.79353 -33.9786
LeftArm  1.12261 8.71521 -41.6962
LeftForeArm  35.137 -10.3214 -9.22589
LeftHand  -0.0491886 7.70628 -0.367305
RightShoulder  -1.1555 -6.53388 31.5918
RightArm  15.6739 -0.398885 43.343
RightForeArm  17.7295 10.5683 6.88365
RightHand  -0.0141757 3.60879 -0.460176
LeftUpLeg  -9.38365 2.85709 3.96223
LeftLeg  63.8029 -1.4648 -2.61997
LeftFoot  5.10156 0.978792 -7.00233
LeftToes  -3.96543e-010 8.93632e-011 -2.58531e-011
63
root  46.3559 38.1179 9.50797 14.1369 -84.2575 -18.694
RightUpLeg  -10.369 -5.23645 5.95829
RightLeg  24.8679 -2.2357 -1.19248
RightFoot  -10.6216 -0.039281 -5.3099
RightToes  -1.74624e-010 0 -3.6325e-017
Spine  5.86558 -0.353577 12.6088
Spine1  6.00148 1.94595 -2.79057
HEad  -4.92233 -15.4768 0.386597
LeftShoulder1  -0.567688 4.91772 -33.9912
LeftArm  -1.39448 11.8075 -40.4536
LeftForeArm  36.3693 -9.17421 -9.00826
LeftHand  -0.0470453 8.28554 -0.119632
RightShoulder  -1.10667 -6.46064 30.8906
RightArm  18.7026 0.8535 44.3347
RightForeArm  15.2662 13.5063 6.52508
RightHand  -0.0803346 2.89867 -1.34513
LeftUpLeg  -13.1435 1.9971 3.45226
LeftLeg  62.9921 -1.17226 -1.89287
LeftFoot  3.44134 0.777175 -6.12525
LeftToes  -3.96543e-010 8.93632e-011 -2.58531e-011
64
root  45.0802 38.3251 9.61613 8.9106 -85.7113 -13.6517
RightUpLeg  -7.12433 -5.74969 4.83007
RightLeg  23.2952 -0.596899 -0.398903
RightFoot  -11.8789 -0.10602 -5.64298
RightToes  -1.74624e-010 0 -3.6325e-017
Spine  6.22652 0.152881 12.8055
Spine1  5.17991 2.72995 -4.43569
HEad  -3.84409 -15.2945 -0.281869
LeftShoulder1  -0.5686 4.93271 -33.6307
LeftArm  -2.45559 14.9625 -39.0504
LeftForeArm  37.2977 -8.42953 -8.85484
LeftHand  -0.0498289 7.2138 -0.568208
RightShoulder  -1.12042 -6.49687 30.8986
RightArm  21.8142 2.07164 44.6537
RightForeArm  11.5796 16.7286 5.70766
RightHand  -0.0785685 4.23813 -1.22292
LeftUpLeg  -15.9834 1.49333 2.94817
LeftLeg  59.2819 -1.50203 -2.18529
LeftFoot  1.0039 0.492493 -4.62188
LeftToes  -3.96543e-010 8.93632e-011 -2.58531e-011
65
root  43.8122 38.4834 9.72288 -0.0253731 -86.9261 -4.74955
RightUpLeg  -4.1466 -6.32057 3.6521
RightLeg  21.866 1.13246 0.224518
RightFoot  -13.0669 -0.171243 -5.4943
RightToes  -1.74624e-010 0 -3.6325e-017
Spine  6.1071 0.614134 12.5353
Spine1  4.8751 3.22349 -5.44629
HEad  -3.52394 -14.9865 -1.02667
LeftShoulder1  -0.543242 4.87588 -33.4381
LeftArm  -3.11971 17.625 -37.881
LeftForeArm  37.8007 -7.87836 -8.70309
LeftHand  -0.0724962 8.88332 -0.755353
RightShoulder  -1.12061 -6.50776 30.769
RightArm  23.9926 3.12095 44.823
RightForeArm  8.48717 20.5185 4.73416
RightHand  -0.0628183 4.61215 -1.01959
LeftUpLeg  -18.1178 0.937212 2.53818
LeftLeg  53.0231 -1.73774 -2.05135
LeftFoot  -1.28844 0.392187 -4.38494
LeftToes  -3.96543e-010 8.93632e-011 -2.58531e-011
66
root  42.544 38.5995 9.815 -13.1734 -87.6888 8.29017
RightUpLeg  -0.956786 -6.94121 2.60435
RightLeg  20.1117 2.52329 0.631598
RightFoot  -14.1244 -0.232389 -5.63008
RightToes  -1.74624e-010 0 -3.6325e-017
Spine  5.8404 0.860473 11.7885
Spine1  4.89589 3.28366 -5.7349
HEad  -3.81799 -15.0302 -1.87901
LeftShoulder1  -0.567912 4.93501 -33.5177
LeftArm  -3.81482 19.8902 -36.9787
LeftForeArm  38.3711 -7.29902 -8.50272
LeftHand  -0.0654957 9.10177 -0.460955
RightShoulder  -1.08884 -6.44628 30.4678
RightArm  23.2387 4.13749 45.0512
RightForeArm  8.78534 23.7941 4.5966
RightHand  -0.0526193 4.81987 -0.895682
LeftUpLeg  -19.1926 0.23886 2.36332
LeftLeg  44.3255 -1.58243 -1.25938
LeftFoot  -1.96312 0.406674 -4.81251
LeftToes  -3.96543e-010 8.93632e-011 -2.58531e-011
67
root  41.3074 38.6502 9.90539 -30.9715 -88.5115 26.3829
RightUpLeg  1.62799 -7.2988 1.77313
RightLeg  18.5597 3.85113 0.945817
RightFoot  -15.1146 -0.291541 -5.751
RightToes  -1.74624e-010 0 -3.6325e-017
Spine  5.44316 1.16857 11.4526
Spine1  4.66578 3.47801 -6.51669
HEad  -4.20288 -14.6098 -2.2973
LeftShoulder1  -0.496036 4.75772 -33.3997
LeftArm  -3.84459 22.0232 -36.167
LeftForeArm  38.6978 -7.33877 -8.37252
LeftHand  -0.0802084 9.36356 -0.814796
RightShoulder  -1.08396 -6.43727 30.4069
RightArm  20.8972 4.8041 45.1502
RightForeArm  10.7677 26.7733 5.18315
RightHand  -0.072727 4.92761 -1.11941
LeftUpLeg  -19.633 0.0277053 2.46935
LeftLeg  33.5501 -1.98824 -1.0746
LeftFoot  -1.40287 0.486172 -5.47806
LeftToes  -3.96543e-010 8.93632e-011 -2.58531e-011
68
root  40.0435 38.6946 9.99091 -57.137 -88.7556 52.7225
RightUpLeg  4.69226 -7.68856 0.84936
RightLeg  16.3698 4.93171 1.17764
RightFoot  -15.9655 -0.335005 -5.61963
RightToes  -1.74624e-010 0 -3.6325e-017
Spine  4.87922 1.33123 10.5239
Spine1  4.99647 3.42991 -6.70577
HEad  -4.39492 -13.2475 -2.9305
LeftShoulder1  -0.572685 4.94081 -33.6986
LeftArm  -4.15525 22.8898 -35.4342
LeftForeArm  39.1574 -6.82133 -8.2183
LeftHand  -0.09505 9.0088 -1.38104
RightShoulder  -1.05111 -6.40332 29.7083
RightArm  19.3319 5.2596 45.6849
RightForeArm  11.3392 29.0234 5.67654
RightHand  -0.117482 5.64181 -1.55042
LeftUpLeg  -19.0186 0.212055 2.37544
LeftLeg  21.3194 -3.19519 -0.982644
LeftFoot  -0.319789 0.608284 -6.28862
LeftToes  -3.96543e-010 8.93632e-011 -2.58531e-011
69
root  38.7843 38.7113 10.066 -91.027 -88.7921 86.9752
RightUpLeg  7.54077 -7.64661 0.195837
RightLeg  14.0684 5.92781 1.08315
RightFoot  -16.57 -0.352052 -5.25783
RightToes  -1.74624e-010 0 -3.6325e-017
Spine  3.90316 1.6719 9.71415
Spine1  5.77534 3.71031 -7.23134
HEad  -5.50897 -13.109 -2.61006
LeftShoulder1  -0.521756 4.82291 -33.3936
LeftArm  -4.51318 23.5138 -35.4671
LeftForeArm  39.1138 -6.56935 -8.04813
LeftHand  -0.109943 9.22664 -1.72146
RightShoulder  -1.1413 -6.62335 30.0669
RightArm  18.6993 6.06446 45.5876
RightForeArm  11.2522 30.1023 5.94251
RightHand  -0.183281 6.09626 -2.18571
LeftUpLeg  -18.095 1.5514 2.06642
LeftLeg  9.17512 -4.71929 -0.639995
LeftFoot  -0.292756 0.649991 -6.70383
LeftToes  -3.96543e-010 8.93632e-011 -2.58531e-011
70
root  37.5011 38.6424 10.1698 -120.817 -88.2094 116.679
RightUpLeg  10.5354 -7.83471 -0.966137
RightLeg  12.5779 7.27445 1.03637
RightFoot  -17.6074 -0.370298 -4.58866
RightToes  -1.74624e-010 0 -3.6325e-017
Spine  3.81489 1.9048 8.47609
Spine1  6.02492 3.93987 -7.47706
HEad  -6.47607 -12.9771 -1.88766
LeftShoulder1  -0.474352 4.71164 -33.1289
LeftArm  -4.89662 24.3017 -35.7463
LeftForeArm  38.9897 -6.99891 -7.83821
LeftHand  -0.100937 9.7193 -1.19741
RightShoulder  -1.12519 -6.5807 30.0458
RightArm  18.5036 6.06073 45.6038
RightForeArm  11.5561 30.6478 6.05877
RightHand  -0.161384 5.82996 -1.99712
LeftUpLeg  -16.7487 3.10019 1.40002
LeftLeg  -0.559192 -2.80737 -0.399315
LeftFoot  -1.03055 0.747793 -8.22665
LeftToes  -3.96543e-010 8.93632e-011 -2.58531e-011
71
root  36.154 38.4317 10.3357 -124.28 -87.9269 119.867
RightUpLeg  13.2249 -8.00863 -1.99225
RightLeg  12.4946 8.15022 1.05798
RightFoot  -19.2389 -0.39015 -3.77486
RightToes  -1.74624e-010 0 -3.6325e-017
Spine  3.90069 1.65324 7.82023
Spine1  6.08712 3.7756 -7.99302
HEad  -6.62418 -11.5533 -1.72488
LeftShoulder1  -0.567007 4.94647 -33.1502
LeftArm  -4.10955 24.0355 -35.3088
LeftForeArm  38.0532 -7.61305 -8.07214
LeftHand  -0.134145 9.94892 -1.95443
RightShoulder  -1.10811 -6.51333 30.2782
RightArm  19.3605 6.10135 45.9232
RightForeArm  11.0084 29.7177 5.86333
RightHand  -0.179238 5.42957 -2.23646
LeftUpLeg  -16.2273 3.34264 0.951401
LeftLeg  -4.52276 2.21854 -1.26042
LeftFoot  -1.72838 0.787171 -9.16519
LeftToes  -3.96543e-010 8.93632e-011 -2.58531e-011
72
root  34.7279 38.1439 10.5534 -119.17 -87.9084 114.4
RightUpLeg  15.6218 -8.02119 -3.01379
RightLeg  13.5644 8.58171 1.26576
RightFoot  -21.0382 -0.336219 -2.29393
RightToes  -1.74624e-010 0 -3.6325e-017
Spine  3.96299 1.53428 7.4643
Spine1  6.07837 3.78834 -8.45177
HEad  -7.20778 -11.5204 -0.829169
LeftShoulder1  -0.525331 4.83901 -33.1939
LeftArm  -4.00382 22.8767 -35.141
LeftForeArm  37.9304 -7.59174 -8.1286
LeftHand  -0.115126 9.1603 -1.88546
RightShoulder  -1.1793 -6.65409 30.9104
RightArm  20.1177 5.38346 45.7403
RightForeArm  11.0404 28.1136 5.47905
RightHand  -0.148059 5.31336 -1.91261
LeftUpLeg  -17.0254 2.68626 -0.106185
LeftLeg  -1.23451 6.29504 -1.1074
LeftFoot  -0.366939 0.595968 -6.2994
LeftToes  -3.96543e-010 8.93632e-011 -2.58531e-011
73
root  33.256 37.9138 10.7634 -117.101 -87.4885 111.874
RightUpLeg  17.9862 -6.47409 -3.73105
RightLeg  14.63 7.79505 1.16483
RightFoot  -22.0681 -0.118947 0.322412
RightToes  -1.74624e-010 0 -3.6325e-017
Spine  3.43431 1.7657 5.90871
Spine1  7.07131 3.92557 -7.80491
HEad  -7.1879 -11.5248 -0.548992
LeftShoulder1  -0.608592 5.03128 -33.672
LeftArm  -3.98488 20.7217 -35.2932
LeftForeArm  38.0916 -7.19118 -8.30238
LeftHand  -0.0909628 9.42693 -1.07794
RightShoulder  -1.11749 -6.51791 30.5424
RightArm  21.784 4.12228 45.8858
RightForeArm  9.86921 25.7228 4.96128
RightHand  -0.100873 4.87542 -1.44097
LeftUpLeg  -18.3575 2.47295 -1.46167
LeftLeg  5.24698 6.26963 -0.392819
LeftFoot  4.56887 0.0175586 -0.467605
LeftToes  -3.96543e-010 8.93632e-011 -2.58531e-011
